<mxfile host="65bd71144e">
    <diagram id="Hno4EH3RgTpdNEn8snZv" name="PÃ¡gina-1">
        <mxGraphModel dx="1003" dy="681" grid="0" gridSize="10" guides="1" tooltips="1" connect="1" arrows="1" fold="1" page="1" pageScale="1" pageWidth="827" pageHeight="1169" background="#ffffff" math="0" shadow="0">
            <root>
                <mxCell id="0"/>
                <mxCell id="1" parent="0"/>
                <mxCell id="128" value="&lt;span style=&quot;border-bottom: 1px dotted&quot;&gt;crm&lt;/span&gt;" style="ellipse;whiteSpace=wrap;html=1;align=center;fillStyle=auto;fillColor=none;fontStyle=1" parent="1" vertex="1">
                    <mxGeometry x="139" y="108" width="100" height="40" as="geometry"/>
                </mxCell>
                <mxCell id="129" value="nome" style="ellipse;whiteSpace=wrap;html=1;align=center;" parent="1" vertex="1">
                    <mxGeometry x="139" y="169" width="100" height="40" as="geometry"/>
                </mxCell>
                <mxCell id="130" value="" style="line;strokeWidth=2;direction=south;html=1;" parent="1" vertex="1">
                    <mxGeometry x="114" y="79" width="10" height="780" as="geometry"/>
                </mxCell>
                <mxCell id="131" value="genero" style="ellipse;whiteSpace=wrap;html=1;align=center;" parent="1" vertex="1">
                    <mxGeometry x="139" y="229" width="100" height="40" as="geometry"/>
                </mxCell>
                <mxCell id="132" value="endereco" style="ellipse;whiteSpace=wrap;html=1;align=center;" parent="1" vertex="1">
                    <mxGeometry x="139" y="409" width="100" height="40" as="geometry"/>
                </mxCell>
                <mxCell id="133" value="" style="endArrow=none;html=1;rounded=0;" parent="1" edge="1">
                    <mxGeometry width="50" height="50" relative="1" as="geometry">
                        <mxPoint x="119" y="128.76999999999998" as="sourcePoint"/>
                        <mxPoint x="139" y="128.76999999999998" as="targetPoint"/>
                    </mxGeometry>
                </mxCell>
                <mxCell id="134" value="" style="endArrow=none;html=1;rounded=0;" parent="1" edge="1">
                    <mxGeometry width="50" height="50" relative="1" as="geometry">
                        <mxPoint x="119" y="188.80999999999995" as="sourcePoint"/>
                        <mxPoint x="139" y="188.80999999999995" as="targetPoint"/>
                    </mxGeometry>
                </mxCell>
                <mxCell id="135" value="" style="endArrow=none;html=1;rounded=0;" parent="1" edge="1">
                    <mxGeometry width="50" height="50" relative="1" as="geometry">
                        <mxPoint x="119" y="248.80999999999995" as="sourcePoint"/>
                        <mxPoint x="139" y="248.80999999999995" as="targetPoint"/>
                    </mxGeometry>
                </mxCell>
                <mxCell id="136" value="" style="endArrow=none;html=1;rounded=0;" parent="1" edge="1">
                    <mxGeometry width="50" height="50" relative="1" as="geometry">
                        <mxPoint x="119" y="308.80999999999995" as="sourcePoint"/>
                        <mxPoint x="139" y="308.80999999999995" as="targetPoint"/>
                    </mxGeometry>
                </mxCell>
                <mxCell id="137" value="" style="endArrow=none;html=1;rounded=0;" parent="1" edge="1">
                    <mxGeometry width="50" height="50" relative="1" as="geometry">
                        <mxPoint x="119" y="428.80999999999995" as="sourcePoint"/>
                        <mxPoint x="139" y="428.80999999999995" as="targetPoint"/>
                    </mxGeometry>
                </mxCell>
                <mxCell id="138" value="&lt;span style=&quot;border-bottom: 1px dotted&quot;&gt;consulta_id&lt;/span&gt;" style="ellipse;whiteSpace=wrap;html=1;align=center;fontStyle=1" parent="1" vertex="1">
                    <mxGeometry x="395" y="109" width="100" height="40" as="geometry"/>
                </mxCell>
                <mxCell id="139" value="datahora" style="ellipse;whiteSpace=wrap;html=1;align=center;" parent="1" vertex="1">
                    <mxGeometry x="395" y="169" width="100" height="40" as="geometry"/>
                </mxCell>
                <mxCell id="140" value="" style="line;strokeWidth=2;direction=south;html=1;" parent="1" vertex="1">
                    <mxGeometry x="370" y="79" width="10" height="410" as="geometry"/>
                </mxCell>
                <mxCell id="141" value="diagnostico" style="ellipse;whiteSpace=wrap;html=1;align=center;" parent="1" vertex="1">
                    <mxGeometry x="395" y="229" width="100" height="40" as="geometry"/>
                </mxCell>
                <mxCell id="142" value="receita" style="ellipse;whiteSpace=wrap;html=1;align=center;" parent="1" vertex="1">
                    <mxGeometry x="395" y="289" width="100" height="40" as="geometry"/>
                </mxCell>
                <mxCell id="143" value="observacoes" style="ellipse;whiteSpace=wrap;html=1;align=center;" parent="1" vertex="1">
                    <mxGeometry x="395" y="349" width="100" height="40" as="geometry"/>
                </mxCell>
                <mxCell id="144" value="" style="endArrow=none;html=1;rounded=0;" parent="1" edge="1">
                    <mxGeometry width="50" height="50" relative="1" as="geometry">
                        <mxPoint x="375" y="128.76999999999998" as="sourcePoint"/>
                        <mxPoint x="395" y="128.76999999999998" as="targetPoint"/>
                    </mxGeometry>
                </mxCell>
                <mxCell id="145" value="" style="endArrow=none;html=1;rounded=0;" parent="1" edge="1">
                    <mxGeometry width="50" height="50" relative="1" as="geometry">
                        <mxPoint x="375" y="188.80999999999995" as="sourcePoint"/>
                        <mxPoint x="395" y="188.80999999999995" as="targetPoint"/>
                    </mxGeometry>
                </mxCell>
                <mxCell id="146" value="" style="endArrow=none;html=1;rounded=0;" parent="1" edge="1">
                    <mxGeometry width="50" height="50" relative="1" as="geometry">
                        <mxPoint x="375" y="248.80999999999995" as="sourcePoint"/>
                        <mxPoint x="395" y="248.80999999999995" as="targetPoint"/>
                    </mxGeometry>
                </mxCell>
                <mxCell id="147" value="" style="endArrow=none;html=1;rounded=0;" parent="1" edge="1">
                    <mxGeometry width="50" height="50" relative="1" as="geometry">
                        <mxPoint x="375" y="308.80999999999995" as="sourcePoint"/>
                        <mxPoint x="395" y="308.80999999999995" as="targetPoint"/>
                    </mxGeometry>
                </mxCell>
                <mxCell id="148" value="" style="endArrow=none;html=1;rounded=0;" parent="1" edge="1">
                    <mxGeometry width="50" height="50" relative="1" as="geometry">
                        <mxPoint x="375" y="368.80999999999995" as="sourcePoint"/>
                        <mxPoint x="395" y="368.80999999999995" as="targetPoint"/>
                    </mxGeometry>
                </mxCell>
                <mxCell id="149" value="&lt;span style=&quot;border-bottom: 1px dotted&quot;&gt;cpf&lt;/span&gt;" style="ellipse;whiteSpace=wrap;html=1;align=center;fontStyle=1" parent="1" vertex="1">
                    <mxGeometry x="659" y="109" width="100" height="40" as="geometry"/>
                </mxCell>
                <mxCell id="150" value="nome" style="ellipse;whiteSpace=wrap;html=1;align=center;" parent="1" vertex="1">
                    <mxGeometry x="659" y="169" width="100" height="40" as="geometry"/>
                </mxCell>
                <mxCell id="151" value="" style="line;strokeWidth=2;direction=south;html=1;" parent="1" vertex="1">
                    <mxGeometry x="634" y="79" width="10" height="350" as="geometry"/>
                </mxCell>
                <mxCell id="152" value="genero" style="ellipse;whiteSpace=wrap;html=1;align=center;" parent="1" vertex="1">
                    <mxGeometry x="659" y="229" width="100" height="40" as="geometry"/>
                </mxCell>
                <mxCell id="153" value="telefone_movel" style="ellipse;whiteSpace=wrap;html=1;align=center;" parent="1" vertex="1">
                    <mxGeometry x="659" y="349" width="100" height="40" as="geometry"/>
                </mxCell>
                <mxCell id="154" value="" style="endArrow=none;html=1;rounded=0;" parent="1" edge="1">
                    <mxGeometry width="50" height="50" relative="1" as="geometry">
                        <mxPoint x="639" y="128.76999999999998" as="sourcePoint"/>
                        <mxPoint x="659" y="128.76999999999998" as="targetPoint"/>
                    </mxGeometry>
                </mxCell>
                <mxCell id="155" value="" style="endArrow=none;html=1;rounded=0;" parent="1" edge="1">
                    <mxGeometry width="50" height="50" relative="1" as="geometry">
                        <mxPoint x="639" y="188.80999999999995" as="sourcePoint"/>
                        <mxPoint x="659" y="188.80999999999995" as="targetPoint"/>
                    </mxGeometry>
                </mxCell>
                <mxCell id="156" value="" style="endArrow=none;html=1;rounded=0;" parent="1" edge="1">
                    <mxGeometry width="50" height="50" relative="1" as="geometry">
                        <mxPoint x="639" y="248.80999999999995" as="sourcePoint"/>
                        <mxPoint x="659" y="248.80999999999995" as="targetPoint"/>
                    </mxGeometry>
                </mxCell>
                <mxCell id="157" value="" style="endArrow=none;html=1;rounded=0;" parent="1" edge="1">
                    <mxGeometry width="50" height="50" relative="1" as="geometry">
                        <mxPoint x="639" y="308.80999999999995" as="sourcePoint"/>
                        <mxPoint x="659" y="308.80999999999995" as="targetPoint"/>
                    </mxGeometry>
                </mxCell>
                <mxCell id="158" value="" style="endArrow=none;html=1;rounded=0;" parent="1" edge="1">
                    <mxGeometry width="50" height="50" relative="1" as="geometry">
                        <mxPoint x="639" y="368.80999999999995" as="sourcePoint"/>
                        <mxPoint x="659" y="368.80999999999995" as="targetPoint"/>
                    </mxGeometry>
                </mxCell>
                <mxCell id="159" value="especialidade" style="ellipse;whiteSpace=wrap;html=1;align=center;" parent="1" vertex="1">
                    <mxGeometry x="139" y="839" width="100" height="40" as="geometry"/>
                </mxCell>
                <mxCell id="160" value="" style="endArrow=none;html=1;rounded=0;" parent="1" edge="1">
                    <mxGeometry width="50" height="50" relative="1" as="geometry">
                        <mxPoint x="119" y="858.8199999999999" as="sourcePoint"/>
                        <mxPoint x="139" y="858.8199999999999" as="targetPoint"/>
                    </mxGeometry>
                </mxCell>
                <mxCell id="161" value="crm" style="ellipse;whiteSpace=wrap;html=1;align=center;fontColor=#FF0000;fontStyle=1" parent="1" vertex="1">
                    <mxGeometry x="395" y="409" width="100" height="40" as="geometry"/>
                </mxCell>
                <mxCell id="162" value="cpf" style="ellipse;whiteSpace=wrap;html=1;align=center;fontColor=#FF0000;fontStyle=1" parent="1" vertex="1">
                    <mxGeometry x="395" y="469" width="100" height="40" as="geometry"/>
                </mxCell>
                <mxCell id="163" value="" style="endArrow=none;html=1;rounded=0;" parent="1" edge="1">
                    <mxGeometry width="50" height="50" relative="1" as="geometry">
                        <mxPoint x="375" y="429" as="sourcePoint"/>
                        <mxPoint x="395" y="429" as="targetPoint"/>
                    </mxGeometry>
                </mxCell>
                <mxCell id="164" value="" style="endArrow=none;html=1;rounded=0;" parent="1" edge="1">
                    <mxGeometry width="50" height="50" relative="1" as="geometry">
                        <mxPoint x="375" y="489" as="sourcePoint"/>
                        <mxPoint x="395" y="489" as="targetPoint"/>
                    </mxGeometry>
                </mxCell>
                <mxCell id="165" value="rua" style="ellipse;whiteSpace=wrap;html=1;align=center;" parent="1" vertex="1">
                    <mxGeometry x="209" y="479" width="100" height="40" as="geometry"/>
                </mxCell>
                <mxCell id="166" value="" style="line;strokeWidth=2;direction=south;html=1;" parent="1" vertex="1">
                    <mxGeometry x="184" y="449" width="10" height="350" as="geometry"/>
                </mxCell>
                <mxCell id="167" value="" style="endArrow=none;html=1;rounded=0;" parent="1" edge="1">
                    <mxGeometry width="50" height="50" relative="1" as="geometry">
                        <mxPoint x="189" y="498.8599999999999" as="sourcePoint"/>
                        <mxPoint x="209" y="498.8599999999999" as="targetPoint"/>
                    </mxGeometry>
                </mxCell>
                <mxCell id="168" value="complemento" style="ellipse;whiteSpace=wrap;html=1;align=center;" parent="1" vertex="1">
                    <mxGeometry x="209" y="579" width="100" height="40" as="geometry"/>
                </mxCell>
                <mxCell id="169" value="" style="endArrow=none;html=1;rounded=0;" parent="1" edge="1">
                    <mxGeometry width="50" height="50" relative="1" as="geometry">
                        <mxPoint x="189" y="598.8599999999999" as="sourcePoint"/>
                        <mxPoint x="209" y="598.8599999999999" as="targetPoint"/>
                    </mxGeometry>
                </mxCell>
                <mxCell id="170" value="bairro" style="ellipse;whiteSpace=wrap;html=1;align=center;" parent="1" vertex="1">
                    <mxGeometry x="209" y="629" width="100" height="40" as="geometry"/>
                </mxCell>
                <mxCell id="171" value="" style="endArrow=none;html=1;rounded=0;" parent="1" edge="1">
                    <mxGeometry width="50" height="50" relative="1" as="geometry">
                        <mxPoint x="189" y="648.8599999999999" as="sourcePoint"/>
                        <mxPoint x="209" y="648.8599999999999" as="targetPoint"/>
                    </mxGeometry>
                </mxCell>
                <mxCell id="172" value="cep" style="ellipse;whiteSpace=wrap;html=1;align=center;" parent="1" vertex="1">
                    <mxGeometry x="209" y="679" width="100" height="40" as="geometry"/>
                </mxCell>
                <mxCell id="173" value="" style="endArrow=none;html=1;rounded=0;" parent="1" edge="1">
                    <mxGeometry width="50" height="50" relative="1" as="geometry">
                        <mxPoint x="189" y="698.8599999999999" as="sourcePoint"/>
                        <mxPoint x="209" y="698.8599999999999" as="targetPoint"/>
                    </mxGeometry>
                </mxCell>
                <mxCell id="174" value="cidade" style="ellipse;whiteSpace=wrap;html=1;align=center;" parent="1" vertex="1">
                    <mxGeometry x="209" y="729" width="100" height="40" as="geometry"/>
                </mxCell>
                <mxCell id="175" value="" style="endArrow=none;html=1;rounded=0;" parent="1" edge="1">
                    <mxGeometry width="50" height="50" relative="1" as="geometry">
                        <mxPoint x="189" y="748.8599999999999" as="sourcePoint"/>
                        <mxPoint x="209" y="748.8599999999999" as="targetPoint"/>
                    </mxGeometry>
                </mxCell>
                <mxCell id="176" value="estado" style="ellipse;whiteSpace=wrap;html=1;align=center;" parent="1" vertex="1">
                    <mxGeometry x="209" y="779" width="100" height="40" as="geometry"/>
                </mxCell>
                <mxCell id="177" value="" style="endArrow=none;html=1;rounded=0;" parent="1" edge="1">
                    <mxGeometry width="50" height="50" relative="1" as="geometry">
                        <mxPoint x="189" y="798.8599999999999" as="sourcePoint"/>
                        <mxPoint x="209" y="798.8599999999999" as="targetPoint"/>
                    </mxGeometry>
                </mxCell>
                <mxCell id="178" value="" style="endArrow=none;html=1;rounded=0;" parent="1" edge="1">
                    <mxGeometry width="50" height="50" relative="1" as="geometry">
                        <mxPoint x="119" y="368.80999999999995" as="sourcePoint"/>
                        <mxPoint x="139" y="368.80999999999995" as="targetPoint"/>
                    </mxGeometry>
                </mxCell>
                <mxCell id="179" value="telefone_fixo" style="ellipse;whiteSpace=wrap;html=1;align=center;" parent="1" vertex="1">
                    <mxGeometry x="139" y="289" width="100" height="40" as="geometry"/>
                </mxCell>
                <mxCell id="180" value="telefone_movel" style="ellipse;whiteSpace=wrap;html=1;align=center;" parent="1" vertex="1">
                    <mxGeometry x="139" y="349" width="100" height="40" as="geometry"/>
                </mxCell>
                <mxCell id="181" value="medicos" style="whiteSpace=wrap;html=1;align=center;" parent="1" vertex="1">
                    <mxGeometry x="69" y="39" width="100" height="40" as="geometry"/>
                </mxCell>
                <mxCell id="182" value="pacientes" style="whiteSpace=wrap;html=1;align=center;" parent="1" vertex="1">
                    <mxGeometry x="589" y="39" width="100" height="40" as="geometry"/>
                </mxCell>
                <mxCell id="183" value="" style="line;strokeWidth=2;html=1;" parent="1" vertex="1">
                    <mxGeometry x="169" y="54" width="140" height="10" as="geometry"/>
                </mxCell>
                <mxCell id="184" value="" style="line;strokeWidth=2;html=1;" parent="1" vertex="1">
                    <mxGeometry x="445" y="54" width="144" height="10" as="geometry"/>
                </mxCell>
                <mxCell id="187" value="consulta" style="shape=associativeEntity;whiteSpace=wrap;html=1;align=center;" parent="1" vertex="1">
                    <mxGeometry x="305" y="29" width="140" height="60" as="geometry"/>
                </mxCell>
                <mxCell id="188" value="nascimento" style="ellipse;whiteSpace=wrap;html=1;align=center;" parent="1" vertex="1">
                    <mxGeometry x="659" y="409" width="100" height="40" as="geometry"/>
                </mxCell>
                <mxCell id="189" value="" style="endArrow=none;html=1;rounded=0;" parent="1" edge="1">
                    <mxGeometry width="50" height="50" relative="1" as="geometry">
                        <mxPoint x="639" y="428.80999999999995" as="sourcePoint"/>
                        <mxPoint x="659" y="428.80999999999995" as="targetPoint"/>
                    </mxGeometry>
                </mxCell>
                <mxCell id="190" value="telefone_fixo" style="ellipse;whiteSpace=wrap;html=1;align=center;" parent="1" vertex="1">
                    <mxGeometry x="659" y="289" width="100" height="40" as="geometry"/>
                </mxCell>
                <mxCell id="202" value="numero" style="ellipse;whiteSpace=wrap;html=1;align=center;" parent="1" vertex="1">
                    <mxGeometry x="209" y="529" width="100" height="40" as="geometry"/>
                </mxCell>
                <mxCell id="203" value="" style="endArrow=none;html=1;rounded=0;" parent="1" edge="1">
                    <mxGeometry width="50" height="50" relative="1" as="geometry">
                        <mxPoint x="189" y="548.8599999999999" as="sourcePoint"/>
                        <mxPoint x="209" y="548.8599999999999" as="targetPoint"/>
                    </mxGeometry>
                </mxCell>
            </root>
        </mxGraphModel>
    </diagram>
</mxfile>